<?xml version="1.0" encoding="UTF-8" standalone="no"?>
<svg
   xmlns:dc="http://purl.org/dc/elements/1.1/"
   xmlns:cc="http://creativecommons.org/ns#"
   xmlns:rdf="http://www.w3.org/1999/02/22-rdf-syntax-ns#"
   xmlns:svg="http://www.w3.org/2000/svg"
   xmlns="http://www.w3.org/2000/svg"
   xmlns:sodipodi="http://sodipodi.sourceforge.net/DTD/sodipodi-0.dtd"
   xmlns:inkscape="http://www.inkscape.org/namespaces/inkscape"
   id="Layer_1"
   data-name="Layer 1"
   viewBox="0 0 4096 4095.9998"
   version="1.1"
   sodipodi:docname="dewalt-logo.svg"
   width="4096"
   height="4096"
   inkscape:version="0.92.2 (5c3e80d, 2017-08-06)"
   inkscape:export-filename="G:\Users\suitedoalex\sites\svg\dewalt-logo-0.png"
   inkscape:export-xdpi="96"
   inkscape:export-ydpi="96">
  <metadata
     id="metadata13">
    <rdf:RDF>
      <cc:Work
         rdf:about="">
        <dc:format>image/svg+xml</dc:format>
        <dc:type
           rdf:resource="http://purl.org/dc/dcmitype/StillImage" />
        <dc:title>dewalt-logo</dc:title>
      </cc:Work>
    </rdf:RDF>
  </metadata>
  <sodipodi:namedview
     pagecolor="#ffffff"
     bordercolor="#666666"
     borderopacity="1"
     objecttolerance="10"
     gridtolerance="10"
     guidetolerance="10"
     inkscape:pageopacity="0"
     inkscape:pageshadow="2"
     inkscape:window-width="1600"
     inkscape:window-height="837"
     id="namedview11"
     showgrid="false"
     inkscape:zoom="0.036534515"
     inkscape:cx="10313.458"
     inkscape:cy="4024.8718"
     inkscape:window-x="-8"
     inkscape:window-y="-8"
     inkscape:window-maximized="1"
     inkscape:current-layer="Layer_1" />
  <defs
     id="defs4">
    <style
       id="style2">.cls-1{fill:#fcbc34;}</style>
  </defs>
  <title
     id="title6">dewalt-logo</title>
  <path
     class="cls-1"
     d="m 5202.7637,152.1577 h 4820.1253 v 91.3772 H 5202.7637 Z m 0,1074.3568 h 4816.4553 v 91.3772 H 5202.7637 Z M 9290.4159,281.1868 h 731.3971 V 532.7694 H 9823.5338 V 1178.822 H 9487.9357 V 532.7694 h -197.5198 z m -502.912,0 V 1178.822 H 9396.896 V 913.6342 H 9122.6801 V 281.1868 Z m -686.3414,8.0788 h 368.1665 l 282.1893,889.5775 h -327.8778 l -33.602,-135.3782 h -205.5776 l -30.5856,135.3782 h -342.3691 l 289.5931,-889.5775 z m 129.0081,556.2786 h 114.2425 L 8288.6208,586.5368 Z M 7924.462,289.2656 h -327.5614 l -91.3772,434.358 -99.1396,-434.358 h -289.5509 l -93.4022,434.358 -89.4154,-434.358 h -327.2451 l 244.685,889.5564 h 303.7468 l 102.0716,-434.1048 104.8138,434.0416 h 311.0874 L 7924.462,289.2656 M 6124.6143,479.7402 h 487.9566 v 183.0919 h -236.2475 v 75.9367 h 205.5986 v 183.2395 h -205.5143 v 75.9367 h 236.2476 v 180.9825 h -488.041 z M 5201.941,1178.822 V 289.2656 h 416.1332 c 246.0982,0 441.7829,134.0072 441.7829,446.5712 0,304.232 -189.4621,442.9642 -443.3649,442.9642 H 5201.941 Z m 343.4238,-266.4113 c 105.4676,0 175.3294,-44.2964 175.3294,-179.4637 0,-148.4352 -69.1235,-188.0489 -174.6544,-188.0489 h -26.9786 v 367.5126 z m 4323.5412,186.8465 c 0,-41.8495 33.9184,-72.6672 74.0172,-72.6672 39.7191,0 73.6378,30.8599 73.6378,72.6672 0,42.1871 -33.9187,73.0469 -73.6378,73.0469 -40.0778,0 -74.0172,-30.8387 -74.0172,-73.0469 z m 73.9961,61.0025 c 32.9692,0 59.0619,-25.8184 59.0619,-60.9181 0,-34.509 -26.0295,-60.5384 -59.0619,-60.5384 -33.3489,0 -59.3783,26.0294 -59.3783,60.5384 0.021,34.9942 26.0294,60.9181 59.3783,60.9181 z m -14.196,-51.4682 h 11.8968 l 15.9045,26.831 h 18.1615 l -18.7099,-28.0966 c 12.6561,-1.582 21.0935,-9.2811 21.0935,-24.6372 0,-12.7827 -10.0405,-22.3381 -30.3114,-22.3381 h -32.1255 v 74.9242 h 13.9429 v -26.7677 z m 0,-12.6561 v -24.0466 h 16.2209 c 9.0281,0 19.2795,0.5906 19.2795,11.6436 0,12.6561 -8.2897,12.4241 -19.3005,12.4241 z"
     id="path8"
     inkscape:connector-curvature="0"
     style="fill:#fcbc34;stroke-width:2.10935307"
     inkscape:export-xdpi="13.939168"
     inkscape:export-ydpi="13.939168" />
  <path
     class="cls-1"
     d="m 5138.5985,2119.61 h 4820.125 v 91.3772 h -4820.125 z m 0,1074.3568 h 4816.455 v 91.3772 h -4816.455 z m 4087.6522,-945.3277 h 731.3968 v 251.5826 h -198.279 v 646.0526 h -335.598 v -646.0526 h -197.5198 z m -502.912,0 v 897.6352 h 609.3921 v -265.1878 h -274.2159 v -632.4474 z m -686.3414,8.0788 h 368.1665 l 282.1893,889.5775 h -327.8778 l -33.602,-135.3782 h -205.5776 l -30.5856,135.3782 H 7747.341 l 289.5931,-889.5775 z m 129.0081,556.2786 h 114.2425 l -55.7923,-259.0074 z m -305.7086,-556.2786 h -327.5614 l -91.3772,434.358 -99.1396,-434.358 h -289.5509 l -93.4022,434.358 -89.4154,-434.358 H 6542.605 l 244.685,889.5564 h 303.7468 l 102.0716,-434.1048 104.8138,434.0416 h 311.0874 l 251.2872,-889.4932 m -1799.8477,190.4746 h 487.9566 v 183.0919 h -236.2475 v 75.9367 h 205.5986 v 183.2395 h -205.5143 v 75.9367 h 236.2476 v 180.9825 h -488.041 z m -922.6733,699.0818 v -889.5564 h 416.1332 c 246.0982,0 441.7829,134.0072 441.7829,446.5712 0,304.232 -189.4621,442.9642 -443.3649,442.9642 h -414.5512 z m 343.4238,-266.4113 c 105.4676,0 175.3294,-44.2964 175.3294,-179.4637 0,-148.4352 -69.1235,-188.0489 -174.6544,-188.0489 h -26.9786 v 367.5126 z m 4323.5409,186.8465 c 0,-41.8495 33.919,-72.6672 74.017,-72.6672 39.72,0 73.638,30.8599 73.638,72.6672 0,42.1871 -33.918,73.0469 -73.638,73.0469 -40.077,0 -74.017,-30.8387 -74.017,-73.0469 z m 73.996,61.0025 c 32.97,0 59.062,-25.8184 59.062,-60.9181 0,-34.509 -26.029,-60.5384 -59.062,-60.5384 -33.349,0 -59.378,26.0294 -59.378,60.5384 0.02,34.9942 26.029,60.9181 59.378,60.9181 z m -14.196,-51.4682 h 11.897 l 15.905,26.831 h 18.161 l -18.71,-28.0966 c 12.656,-1.582 21.094,-9.2811 21.094,-24.6372 0,-12.7827 -10.041,-22.3381 -30.312,-22.3381 h -32.125 v 74.9242 h 13.943 v -26.7677 z m 0,-12.6561 v -24.0466 h 16.221 c 9.028,0 19.28,0.5906 19.28,11.6436 0,12.6561 -8.29,12.4241 -19.301,12.4241 z"
     id="path8-6"
     inkscape:connector-curvature="0"
     style="fill:#000000;stroke-width:2.10935307;fill-opacity:1"
     inkscape:export-xdpi="13.939168"
     inkscape:export-ydpi="13.939168" />
  <rect
     style="fill:#000000;fill-opacity:1;fill-rule:evenodd;stroke-width:148.13012695"
     id="rect863"
     width="6116.3311"
     height="2240.5598"
     x="10679.944"
     y="676.11176"
     inkscape:export-xdpi="64.28952"
     inkscape:export-ydpi="64.28952" />
  <rect
     style="fill:#fcbc34;fill-opacity:1;fill-rule:evenodd;stroke-width:82.07958984"
     id="rect863-3"
     width="3389.0874"
     height="1241.5045"
     x="353.4563"
     y="1427.2478"
     inkscape:export-xdpi="19.828346"
     inkscape:export-ydpi="19.828346" />
  <path
     class="cls-1"
     d="M 535.45602,1682.1332 H 3561.0596 v 57.3577 H 535.45602 Z m 0,674.3762 H 3558.756 v 57.3577 H 535.45602 Z M 3101.2847,1763.1251 h 459.0997 v 157.919 H 3435.924 v 405.5286 h -210.6554 v -405.5286 h -123.984 z m -315.679,0 v 563.4476 h 382.5167 v -166.4589 h -172.1259 v -396.9887 z m -430.8177,5.071 h 231.0985 l 177.1308,558.3899 h -205.8092 l -21.0921,-84.9773 h -129.0418 l -19.1988,84.9773 h -214.9058 l 181.7781,-558.39 z m 80.9785,349.1773 h 71.71 L 2472.4557,1954.794 Z M 2243.8723,1768.196 h -205.611 l -57.3576,272.6476 -62.2302,-272.6476 h -181.7517 l -58.6287,272.6476 -56.1263,-272.6476 h -205.4127 l 153.5896,558.3767 h 190.6625 l 64.0706,-272.4887 65.7917,272.449 h 195.2703 l 157.7334,-558.337 m -1129.7686,119.5615 h 306.292 v 114.9273 h -148.2929 v 47.6656 h 129.0543 v 115.0198 h -129.0017 v 47.6655 h 148.293 v 113.6031 H 1114.1036 Z M 534.94012,2326.5727 V 1768.196 h 261.2072 c 154.4771,0 277.30828,84.1167 277.30828,280.3139 0,190.967 -118.92578,278.0497 -278.30068,278.0497 h -260.2148 z m 215.5684,-167.2269 c 66.2016,0 110.0545,-27.805 110.0545,-112.6498 0,-93.1731 -43.3897,-118.0387 -109.6318,-118.0387 h -16.9345 v 230.6885 z m 2713.89568,117.2839 c 0,-26.2692 21.2905,-45.6133 46.4606,-45.6133 24.9317,0 46.2226,19.3707 46.2226,45.6133 0,26.4809 -21.2909,45.8517 -46.2226,45.8517 -25.1571,0 -46.4606,-19.3575 -46.4606,-45.8517 z m 46.4475,38.2914 c 20.6947,0 37.0733,-16.2064 37.0733,-38.2384 0,-21.6614 -16.3384,-38.0002 -37.0733,-38.0002 -20.9332,0 -37.2717,16.3388 -37.2717,38.0002 0.012,21.966 16.3385,38.2384 37.2717,38.2384 z m -8.9109,-32.3068 h 7.4678 l 9.983,16.842 h 11.4004 l -11.7444,-17.6364 c 7.9442,-0.9929 13.2407,-5.8258 13.2407,-15.4648 0,-8.0237 -6.3027,-14.0216 -19.0268,-14.0216 h -20.165 v 47.03 h 8.752 v -16.802 z m 0,-7.9442 v -15.094 h 10.182 c 5.6669,0 12.102,0.3706 12.102,7.3087 0,7.9442 -5.2036,7.7985 -12.1153,7.7985 z"
     id="path8-4-8"
     inkscape:connector-curvature="0"
     style="fill:#000000;fill-opacity:1;stroke-width:1.32404578"
     inkscape:export-xdpi="19.828346"
     inkscape:export-ydpi="19.828346" />
  <path
     class="cls-1"
     d="m 11328.458,1213.5247 h 4820.126 v 91.3772 h -4820.126 z m 0,1074.3568 h 4816.456 v 91.3772 h -4816.456 z m 4087.652,-945.3277 h 731.398 v 251.5826 h -198.28 v 646.0526 h -335.598 v -646.0526 h -197.52 z m -502.912,0 v 897.6352 h 609.393 v -265.1878 h -274.216 v -632.4474 z m -686.341,8.0788 h 368.167 l 282.189,889.5775 h -327.878 l -33.602,-135.3782 h -205.578 l -30.585,135.3782 h -342.369 l 289.593,-889.5775 z m 129.008,556.2786 h 114.243 l -55.793,-259.0074 z m -305.708,-556.2786 h -327.562 l -91.377,434.358 -99.14,-434.358 h -289.551 l -93.402,434.358 -89.415,-434.358 h -327.245 l 244.685,889.5564 h 303.747 l 102.071,-434.1048 104.814,434.0416 h 311.087 l 251.288,-889.4932 m -1799.848,190.4746 h 487.956 v 183.0919 h -236.247 v 75.9367 h 205.599 v 183.2395 h -205.515 v 75.9367 h 236.248 v 180.9825 h -488.041 z m -922.673,699.0818 v -889.5564 h 416.133 c 246.098,0 441.783,134.0072 441.783,446.5712 0,304.232 -189.462,442.9642 -443.365,442.9642 h -414.551 z m 343.423,-266.4113 c 105.468,0 175.33,-44.2964 175.33,-179.4637 0,-148.4352 -69.124,-188.0489 -174.655,-188.0489 h -26.978 v 367.5126 z m 4323.542,186.8465 c 0,-41.8495 33.918,-72.6672 74.017,-72.6672 39.719,0 73.638,30.8599 73.638,72.6672 0,42.1871 -33.919,73.0469 -73.638,73.0469 -40.078,0 -74.017,-30.8387 -74.017,-73.0469 z m 73.996,61.0025 c 32.969,0 59.062,-25.8184 59.062,-60.9181 0,-34.509 -26.03,-60.5384 -59.062,-60.5384 -33.349,0 -59.379,26.0294 -59.379,60.5384 0.02,34.9942 26.03,60.9181 59.379,60.9181 z m -14.196,-51.4682 h 11.896 l 15.905,26.831 h 18.161 l -18.709,-28.0966 c 12.656,-1.582 21.093,-9.2811 21.093,-24.6372 0,-12.7827 -10.04,-22.3381 -30.311,-22.3381 h -32.126 v 74.9242 h 13.943 v -26.7677 z m 0,-12.6561 v -24.0466 h 16.221 c 9.028,0 19.279,0.5906 19.279,11.6436 0,12.6561 -8.29,12.4241 -19.3,12.4241 z"
     id="path8-5"
     inkscape:connector-curvature="0"
     style="fill:#fcbc34;stroke-width:2.10935307"
     inkscape:export-xdpi="64.28952"
     inkscape:export-ydpi="64.28952" />
</svg>
